<?xml version="1.0" encoding="UTF-8" standalone="no"?>
<!-- Created with Inkscape (http://www.inkscape.org/) -->

<svg
   xmlns:dc="http://purl.org/dc/elements/1.1/"
   xmlns:cc="http://creativecommons.org/ns#"
   xmlns:rdf="http://www.w3.org/1999/02/22-rdf-syntax-ns#"
   xmlns:svg="http://www.w3.org/2000/svg"
   xmlns="http://www.w3.org/2000/svg"
   xmlns:sodipodi="http://sodipodi.sourceforge.net/DTD/sodipodi-0.dtd"
   xmlns:inkscape="http://www.inkscape.org/namespaces/inkscape"
   width="600"
   height="60"
   viewBox="0 0 600.00001 60.000001"
   id="svg2"
   version="1.1"
   inkscape:version="0.91 r13725"
   sodipodi:docname="diekronederschoepfung.svg">
  <defs
     id="defs4" />
  <sodipodi:namedview
     id="base"
     pagecolor="#ffffff"
     bordercolor="#666666"
     borderopacity="1.0"
     inkscape:pageopacity="0.0"
     inkscape:pageshadow="2"
     inkscape:zoom="0.24748737"
     inkscape:cx="297.64868"
     inkscape:cy="800.8122"
     inkscape:document-units="px"
     inkscape:current-layer="layer1"
     showgrid="false"
     inkscape:window-width="1301"
     inkscape:window-height="744"
     inkscape:window-x="65"
     inkscape:window-y="24"
     inkscape:window-maximized="1"
     units="px" />
  <metadata
     id="metadata7">
    <rdf:RDF>
      <cc:Work
         rdf:about="">
        <dc:format>image/svg+xml</dc:format>
        <dc:type
           rdf:resource="http://purl.org/dc/dcmitype/StillImage" />
        <dc:title></dc:title>
      </cc:Work>
    </rdf:RDF>
  </metadata>
  <g
     inkscape:label="Ebene 1"
     inkscape:groupmode="layer"
     id="layer1"
     transform="translate(0,-992.36216)">
    <g
       id="g4153"
       transform="translate(-1.359385,982.78294)">
      <path
         d="m 24.13635,23.122633 q 0,-0.56549 0.5251,-1.37334 0.52511,-0.80786 0.96943,-0.80786 0.5251,0 1.21177,-0.96942 0.64629,-0.96942 3.95848,-1.33295 4.24122,-0.40393 5.57418,-0.40393 1.69649,0 4.16043,0.44432 7.06871,1.21178 9.93658,3.59494 2.86788,2.34277 2.86788,7.1091 0,4.24122 -1.45414,8.03812 -1.41374,3.79691 -3.67572,6.34164 -2.26199,2.54474 -4.76633,4.24122 -2.50434,1.6561 -4.8875,2.2216 -1.00982,0.24235 -1.49453,0.76746 -0.48471,0.56549 -0.5251,1.0502 -0.0404,0.48472 -0.40393,0.84825 -0.32314,0.40392 -1.0906,0.40392 -1.25217,0 -1.25217,-0.48471 0,-0.28274 -0.32314,-0.48471 -0.32314,-0.20196 -0.72707,-0.32314 -0.36353,-0.12118 -0.68667,-0.5251 -0.32314,-0.40393 -0.32314,-1.05021 0,-1.0906 0.76746,-1.37335 0.76746,-0.28275 0.76746,-3.43337 0,-1.6561 -0.20197,-3.35258 -0.20196,-1.73689 -0.68667,-5.21065 -0.44432,-3.51416 -0.84824,-7.75538 l -0.64629,-6.98792 -1.45413,0.12118 q -0.92903,0.0808 -1.77727,0.68667 -0.84825,0.5655 -1.37335,1.0906 -0.52511,0.52511 -0.80785,0.52511 -0.28275,0 -0.80786,-0.5655 -0.5251,-0.60589 -0.5251,-1.05021 z m 9.65383,0.12118 q 0,1.25217 1.13099,9.49226 1.17139,8.24009 1.17139,10.74443 0,0.80786 -0.0808,1.61571 l -0.32314,2.06002 2.1812,0 q 3.59494,0 8.15931,-5.08947 2.58512,-2.90826 3.47376,-5.85692 0.92903,-2.94866 0.92903,-7.18989 0,-1.77727 -0.28275,-2.46394 -0.24235,-0.68668 -1.17138,-1.73689 -0.92903,-1.00981 -2.10042,-1.49452 -1.17138,-0.48471 -3.83729,-1.00982 -4.84712,-0.80785 -7.31106,-0.80785 -1.131,0 -1.53492,0.28275 -0.40393,0.28275 -0.40393,1.45413 z"
         style="font-style:normal;font-variant:normal;font-weight:normal;font-stretch:normal;font-size:medium;line-height:125%;font-family:Purisa;-inkscape-font-specification:Purisa;letter-spacing:0px;word-spacing:0px;fill:#000000;fill-opacity:1;stroke:none;stroke-width:1px;stroke-linecap:butt;stroke-linejoin:miter;stroke-opacity:1"
         id="path4145"
         inkscape:connector-curvature="0" />
      <path
         d="m 60.95294,27.202293 q 0.5655,-0.48471 0.96942,-0.48471 0.84825,0 1.21178,2.7063 0.40392,2.66591 0.72707,10.30011 0.16157,3.55455 0.16157,6.42242 0,2.86788 -0.24236,3.15063 -0.48471,0.60589 -1.21178,0.60589 -1.00981,0 -1.25217,-0.84825 -0.20196,-0.5251 -0.60589,-8.1593 -0.40392,-7.6746 -0.40392,-10.66365 0,-2.50434 0.64628,-3.02944 z m -0.24236,-9.49226 q 0,-0.5655 0.44432,-1.131 0.48471,-0.56549 0.84825,-0.56549 0.40392,0 1.0906,0.56549 0.72706,0.52511 0.72706,1.37335 0,0.60589 -0.36353,1.05021 -0.32314,0.40393 -0.88864,0.40393 -0.64628,0 -1.25217,-0.48472 -0.60589,-0.48471 -0.60589,-1.21177 z"
         style="font-style:normal;font-variant:normal;font-weight:normal;font-stretch:normal;font-size:medium;line-height:125%;font-family:Purisa;-inkscape-font-specification:Purisa;letter-spacing:0px;word-spacing:0px;fill:#000000;fill-opacity:1;stroke:none;stroke-width:1px;stroke-linecap:butt;stroke-linejoin:miter;stroke-opacity:1"
         id="path4147"
         inkscape:connector-curvature="0" />
      <path
         d="m 90.49381,41.541663 q 0.20197,0 0.20197,0.32314 0,0.72707 -1.0906,2.34277 -1.05021,1.6157 -2.26199,2.66591 -4.24122,3.75651 -8.48244,3.75651 -1.61571,0 -3.23141,-0.72706 -1.57531,-0.76746 -2.94866,-2.14081 -1.37335,-1.37335 -2.22159,-3.67573 -0.84825,-2.30238 -0.84825,-5.12986 0,-1.73688 0.40393,-2.94866 0.80785,-2.46395 3.43337,-5.21064 2.66591,-2.7467 5.00868,-2.7467 0.64628,0 1.93885,0.12118 1.93884,0.16157 2.7063,0.40392 0.80785,0.24236 1.81767,1.00982 1.29256,0.96942 2.22159,2.50434 0.96942,1.49453 0.96942,2.50434 0,1.29256 -1.00981,1.97924 -1.00982,0.64628 -3.91809,1.29256 -3.75651,0.84825 -7.43223,1.05021 l -3.75651,0.20196 0,1.61571 q 0,2.98905 2.78708,5.65496 2.10042,2.01963 4.3624,2.01963 1.73689,0 3.67573,-1.05021 1.97924,-1.0906 3.35259,-2.38316 1.37335,-1.29256 2.62552,-2.34277 1.25217,-1.0906 1.69648,-1.0906 z m -6.5032,-9.8558 q -1.25217,-1.13099 -1.89846,-1.41374 -0.60588,-0.32314 -1.6157,-0.32314 -2.01963,0 -3.02944,0.40393 -0.96943,0.36353 -1.97924,1.53492 -3.06984,3.51415 -3.06984,4.68554 0,0.5251 0.96942,0.5251 3.67573,0 10.42129,-1.53492 2.01963,-0.48471 2.01963,-1.69648 0,-0.5655 -1.81766,-2.18121 z"
         style="font-style:normal;font-variant:normal;font-weight:normal;font-stretch:normal;font-size:medium;line-height:125%;font-family:Purisa;-inkscape-font-specification:Purisa;letter-spacing:0px;word-spacing:0px;fill:#000000;fill-opacity:1;stroke:none;stroke-width:1px;stroke-linecap:butt;stroke-linejoin:miter;stroke-opacity:1"
         id="path4149"
         inkscape:connector-curvature="0" />
      <path
         d="m 122.39071,19.406523 q 0,-1.57532 0.16157,-2.14081 0.16157,-0.60589 0.80785,-0.60589 0.84824,0 1.41374,1.05021 0.48471,0.96942 0.5655,5.37221 0,4.40279 0.36353,6.66478 l 0.36353,2.26199 3.95848,-4.24123 q 3.99887,-4.24122 4.60475,-4.24122 0.48472,0 1.53492,-1.05021 1.0906,-1.0502 1.57531,-1.0502 0.48472,0 1.37335,-0.76746 0.88864,-0.76746 1.6561,-0.76746 0.68667,0 1.17138,0.48471 0.52511,0.44432 0.52511,1.21178 0,0.48471 -0.40393,0.76745 -0.36353,0.28275 -1.37335,0.60589 -1.89845,0.52511 -7.6342,6.26086 -5.73575,5.73575 -5.73575,7.02831 0,0.20196 6.82635,3.91808 2.30238,1.25217 4.20083,2.34277 1.89846,1.05021 2.7467,1.6157 0.84824,0.52511 1.49453,0.92903 0.64628,0.40393 0.92903,0.52511 0.28274,0.12118 0.56549,0.12118 0.72707,0 2.34277,1.45413 1.6561,1.41374 1.6561,2.01963 0,0.76746 -0.40393,0.76746 -0.76746,0 -3.55455,-1.00982 -2.78708,-1.00981 -4.03925,-1.73688 -2.62552,-1.57531 -7.75538,-4.16044 -5.12986,-2.62551 -5.53379,-2.62551 -0.40393,0 -0.40393,1.0502 0,0.44432 0.36354,3.8373 0.40392,3.35259 0.40392,5.17025 0,2.42356 -1.0502,2.42356 -1.41374,0 -1.85806,-1.57531 -0.40393,-1.53492 -0.84825,-7.31106 -0.12118,-1.17139 -0.16157,-1.81767 -0.84824,-10.82522 -0.84824,-22.78142 z"
         style="font-style:normal;font-variant:normal;font-weight:normal;font-stretch:normal;font-size:medium;line-height:125%;font-family:Purisa;-inkscape-font-specification:Purisa;letter-spacing:0px;word-spacing:0px;fill:#000000;fill-opacity:1;stroke:none;stroke-width:1px;stroke-linecap:butt;stroke-linejoin:miter;stroke-opacity:1"
         id="path4151"
         inkscape:connector-curvature="0" />
      <path
         d="m 166.79416,30.595263 q 0.68667,0 1.21178,0.44432 0.5251,0.40393 0.5251,0.68668 0,0.48471 -1.53492,1.0906 -2.50434,1.00981 -5.12986,4.8875 -2.58512,3.8373 -3.15062,7.43224 -0.64628,4.07965 -1.05021,5.33182 -0.40392,1.29257 -1.0502,1.29257 -0.5655,0 -0.88864,-0.40393 -0.28275,-0.40393 -0.40393,-0.88864 -0.0808,-0.48471 -0.20196,-1.77727 -0.0404,-0.24236 -0.0404,-0.36354 -0.96943,-10.17893 -0.96943,-16.07625 0,-2.10041 0.16157,-2.58512 0.44432,-1.29257 1.131,-1.29257 0.64628,0 0.64628,1.0906 0,1.81767 0.5655,5.85693 0.56549,4.03926 0.84824,4.03926 0.36353,0 1.49453,-2.22159 1.41374,-2.62552 3.75651,-4.56437 2.38316,-1.97924 4.07965,-1.97924 z"
         style="font-style:normal;font-variant:normal;font-weight:normal;font-stretch:normal;font-size:medium;line-height:125%;font-family:Purisa;-inkscape-font-specification:Purisa;letter-spacing:0px;word-spacing:0px;fill:#000000;fill-opacity:1;stroke:none;stroke-width:1px;stroke-linecap:butt;stroke-linejoin:miter;stroke-opacity:1"
         id="path4153"
         inkscape:connector-curvature="0" />
      <path
         d="m 177.47359,32.089793 q 3.15062,-2.94866 5.29143,-3.87769 2.1812,-0.96942 5.49339,-0.96942 5.00868,0 6.26085,2.98905 0.76746,1.77728 0.76746,4.3624 0,4.28162 -1.89845,8.68441 -1.89845,4.3624 -4.68554,6.05889 -2.70631,1.6561 -5.69536,1.6561 -4.16044,0 -6.66478,-2.86788 -1.73688,-2.01963 -2.26198,-3.39298 -0.52511,-1.41374 -0.52511,-3.99886 0,-4.88751 3.91809,-8.64402 z m 6.5032,16.60136 q 3.39298,0 6.13968,-4.64515 2.78709,-4.68554 2.78709,-10.58286 0,-0.88864 -0.20197,-1.33296 -0.20196,-0.44432 -0.72706,-0.88863 -1.49453,-1.25217 -3.19102,-1.25217 -0.28275,0 -0.64628,0.0808 -0.32314,0.0404 -1.0906,0.16157 -0.76746,0.0808 -1.81767,0.20196 -1.41374,0.20197 -2.26198,0.64629 -0.80785,0.40392 -2.06002,1.57531 -2.38317,2.26198 -3.39298,4.20083 -1.00982,1.89845 -1.00982,4.16043 0,3.35259 2.06003,5.4934 2.10041,2.14081 5.4126,2.1812 z"
         style="font-style:normal;font-variant:normal;font-weight:normal;font-stretch:normal;font-size:medium;line-height:125%;font-family:Purisa;-inkscape-font-specification:Purisa;letter-spacing:0px;word-spacing:0px;fill:#000000;fill-opacity:1;stroke:none;stroke-width:1px;stroke-linecap:butt;stroke-linejoin:miter;stroke-opacity:1"
         id="path4155"
         inkscape:connector-curvature="0" />
      <path
         d="m 202.65395,28.373673 q 0,-1.37335 0.80785,-1.37335 0.52511,0 0.76746,1.21178 0.24236,1.17139 0.88864,7.02831 0.72707,6.34164 0.84824,6.62439 0.16157,-0.16157 1.17139,-3.2718 0.92903,-2.90827 1.45413,-4.03926 0.5655,-1.17139 1.93885,-3.11023 2.94866,-4.07965 4.56436,-4.07965 1.05021,0 1.97924,1.41374 1.25217,1.85806 1.53492,3.67572 0.28274,1.81767 0.40392,8.60363 0.0808,4.3624 0.0808,5.17025 0,2.01963 -0.16157,2.94866 -0.12118,0.88864 -0.40393,1.0906 -0.24235,0.24236 -0.88864,0.28275 -0.36353,0 -0.48471,-0.32314 -0.12117,-0.28275 -0.12117,-1.37335 0,-0.60589 0.0808,-2.58513 0.0808,-2.01963 0.0808,-3.39298 0,-3.43337 -0.28275,-6.70517 -0.24236,-3.31219 -0.60589,-4.24122 -0.20196,-0.5251 -0.64628,-1.0906 -0.44432,-0.5655 -0.84825,-0.5655 -0.84824,0 -2.7063,2.90827 -1.85806,2.86788 -3.19102,6.05889 -1.25217,3.06984 -1.69649,4.60476 -0.44431,1.53492 -0.68667,4.07965 -0.44432,4.12004 -0.64628,4.12004 -0.32314,0 -0.92903,-0.68667 -0.44432,-0.44432 -0.60589,-1.89845 -0.16157,-1.49453 -0.44432,-5.85693 -0.28275,-4.40279 -0.76746,-8.88637 -0.48471,-4.64515 -0.48471,-6.34164 z"
         style="font-style:normal;font-variant:normal;font-weight:normal;font-stretch:normal;font-size:medium;line-height:125%;font-family:Purisa;-inkscape-font-specification:Purisa;letter-spacing:0px;word-spacing:0px;fill:#000000;fill-opacity:1;stroke:none;stroke-width:1px;stroke-linecap:butt;stroke-linejoin:miter;stroke-opacity:1"
         id="path4157"
         inkscape:connector-curvature="0" />
      <path
         d="m 245.51618,41.541663 q 0.20196,0 0.20196,0.32314 0,0.72707 -1.0906,2.34277 -1.05021,1.6157 -2.26199,2.66591 -4.24122,3.75651 -8.48244,3.75651 -1.61571,0 -3.23141,-0.72706 -1.57531,-0.76746 -2.94866,-2.14081 -1.37335,-1.37335 -2.22159,-3.67573 -0.84825,-2.30238 -0.84825,-5.12986 0,-1.73688 0.40393,-2.94866 0.80785,-2.46395 3.43337,-5.21064 2.66591,-2.7467 5.00868,-2.7467 0.64628,0 1.93885,0.12118 1.93884,0.16157 2.7063,0.40392 0.80785,0.24236 1.81767,1.00982 1.29256,0.96942 2.22159,2.50434 0.96942,1.49453 0.96942,2.50434 0,1.29256 -1.00981,1.97924 -1.00982,0.64628 -3.91808,1.29256 -3.75652,0.84825 -7.43224,1.05021 l -3.75651,0.20196 0,1.61571 q 0,2.98905 2.78709,5.65496 2.10041,2.01963 4.3624,2.01963 1.73688,0 3.67572,-1.05021 1.97924,-1.0906 3.35259,-2.38316 1.37335,-1.29256 2.62552,-2.34277 1.25217,-1.0906 1.69649,-1.0906 z m -6.50321,-9.8558 q -1.25217,-1.13099 -1.89845,-1.41374 -0.60589,-0.32314 -1.61571,-0.32314 -2.01963,0 -3.02944,0.40393 -0.96942,0.36353 -1.97924,1.53492 -3.06984,3.51415 -3.06984,4.68554 0,0.5251 0.96943,0.5251 3.67572,0 10.42129,-1.53492 2.01963,-0.48471 2.01963,-1.69648 0,-0.5655 -1.81767,-2.18121 z"
         style="font-style:normal;font-variant:normal;font-weight:normal;font-stretch:normal;font-size:medium;line-height:125%;font-family:Purisa;-inkscape-font-specification:Purisa;letter-spacing:0px;word-spacing:0px;fill:#000000;fill-opacity:1;stroke:none;stroke-width:1px;stroke-linecap:butt;stroke-linejoin:miter;stroke-opacity:1"
         id="path4159"
         inkscape:connector-curvature="0" />
      <path
         d="m 299.50784,50.629993 q 0,0.88864 -0.36354,1.37335 -0.32314,0.52511 -0.60589,0.60589 -0.24235,0.12118 -0.44432,0.12118 -0.5251,0 -0.88863,-0.36354 -0.36354,-0.32314 -0.5655,-1.21177 -0.20196,-0.84825 -0.28275,-1.29257 -0.0404,-0.44431 -0.16157,-1.65609 -0.28275,-4.07966 -0.64628,-4.07966 -0.44432,0 -1.41374,1.17139 -4.52397,5.33182 -9.53265,5.33182 -1.49453,0 -2.98906,-0.56549 -5.17025,-1.93885 -5.17025,-7.91695 0,-2.58513 0.84825,-4.9279 0.88863,-2.38316 2.22159,-3.99887 1.37335,-1.6157 2.7467,-2.7063 1.37334,-1.0906 2.62552,-1.53492 1.57531,-0.60589 2.1812,-0.60589 1.0502,0 3.51415,1.37335 2.50434,1.37335 3.47376,2.66591 1.0906,1.45414 1.6561,1.45414 0.0404,0 0.0404,0 0,-0.0404 0.0404,-0.0404 0.44431,-0.28275 0.44431,-10.54247 0,-10.13854 0.48472,-11.51189 0.5251,-1.25217 1.57531,-1.25217 l 1.0906,0 -0.32314,16.60136 q -0.12118,6.18007 -0.12118,11.02718 0,6.58399 0.28275,9.41148 0.28275,2.82748 0.28275,3.06983 z m -9.45187,-17.89392 q -2.38317,-1.57531 -3.3122,-1.57531 -0.80785,0 -3.63533,2.7467 -2.82748,2.74669 -3.35258,4.03926 -0.40393,0.96942 -0.40393,3.51415 0,3.11023 0.5251,4.03926 0.40393,0.72707 1.93885,1.57531 1.57531,0.84825 3.11023,0.84825 2.74669,0 6.94752,-4.03926 3.3122,-3.19102 3.3122,-4.16044 0,-1.33295 -1.69649,-3.55455 -1.6561,-2.22159 -3.43337,-3.43337 z"
         style="font-style:normal;font-variant:normal;font-weight:normal;font-stretch:normal;font-size:medium;line-height:125%;font-family:Purisa;-inkscape-font-specification:Purisa;letter-spacing:0px;word-spacing:0px;fill:#000000;fill-opacity:1;stroke:none;stroke-width:1px;stroke-linecap:butt;stroke-linejoin:miter;stroke-opacity:1"
         id="path4161"
         inkscape:connector-curvature="0" />
      <path
         d="m 325.43357,41.541663 q 0.20196,0 0.20196,0.32314 0,0.72707 -1.0906,2.34277 -1.05021,1.6157 -2.26199,2.66591 -4.24122,3.75651 -8.48244,3.75651 -1.61571,0 -3.23141,-0.72706 -1.57531,-0.76746 -2.94866,-2.14081 -1.37335,-1.37335 -2.22159,-3.67573 -0.84825,-2.30238 -0.84825,-5.12986 0,-1.73688 0.40393,-2.94866 0.80785,-2.46395 3.43337,-5.21064 2.66591,-2.7467 5.00868,-2.7467 0.64628,0 1.93885,0.12118 1.93884,0.16157 2.7063,0.40392 0.80785,0.24236 1.81767,1.00982 1.29256,0.96942 2.22159,2.50434 0.96942,1.49453 0.96942,2.50434 0,1.29256 -1.00981,1.97924 -1.00982,0.64628 -3.91808,1.29256 -3.75652,0.84825 -7.43224,1.05021 l -3.75651,0.20196 0,1.61571 q 0,2.98905 2.78708,5.65496 2.10042,2.01963 4.36241,2.01963 1.73688,0 3.67572,-1.05021 1.97924,-1.0906 3.35259,-2.38316 1.37335,-1.29256 2.62552,-2.34277 1.25217,-1.0906 1.69649,-1.0906 z m -6.50321,-9.8558 q -1.25217,-1.13099 -1.89845,-1.41374 -0.60589,-0.32314 -1.61571,-0.32314 -2.01963,0 -3.02944,0.40393 -0.96943,0.36353 -1.97924,1.53492 -3.06984,3.51415 -3.06984,4.68554 0,0.5251 0.96942,0.5251 3.67573,0 10.42129,-1.53492 2.01963,-0.48471 2.01963,-1.69648 0,-0.5655 -1.81766,-2.18121 z"
         style="font-style:normal;font-variant:normal;font-weight:normal;font-stretch:normal;font-size:medium;line-height:125%;font-family:Purisa;-inkscape-font-specification:Purisa;letter-spacing:0px;word-spacing:0px;fill:#000000;fill-opacity:1;stroke:none;stroke-width:1px;stroke-linecap:butt;stroke-linejoin:miter;stroke-opacity:1"
         id="path4163"
         inkscape:connector-curvature="0" />
      <path
         d="m 344.14291,30.595263 q 0.68668,0 1.21178,0.44432 0.52511,0.40393 0.52511,0.68668 0,0.48471 -1.53492,1.0906 -2.50434,1.00981 -5.12986,4.8875 -2.58513,3.8373 -3.15062,7.43224 -0.64629,4.07965 -1.05021,5.33182 -0.40393,1.29257 -1.05021,1.29257 -0.5655,0 -0.88864,-0.40393 -0.28274,-0.40393 -0.40392,-0.88864 -0.0808,-0.48471 -0.20197,-1.77727 -0.0404,-0.24236 -0.0404,-0.36354 -0.96942,-10.17893 -0.96942,-16.07625 0,-2.10041 0.16157,-2.58512 0.44432,-1.29257 1.13099,-1.29257 0.64628,0 0.64628,1.0906 0,1.81767 0.5655,5.85693 0.5655,4.03926 0.84824,4.03926 0.36354,0 1.49453,-2.22159 1.41374,-2.62552 3.75651,-4.56437 2.38317,-1.97924 4.07965,-1.97924 z"
         style="font-style:normal;font-variant:normal;font-weight:normal;font-stretch:normal;font-size:medium;line-height:125%;font-family:Purisa;-inkscape-font-specification:Purisa;letter-spacing:0px;word-spacing:0px;fill:#000000;fill-opacity:1;stroke:none;stroke-width:1px;stroke-linecap:butt;stroke-linejoin:miter;stroke-opacity:1"
         id="path4165"
         inkscape:connector-curvature="0" />
      <path
         d="m 379.82417,42.632263 c 0,0.53857 -0.20196,1.02328 -0.60589,1.45413 -0.40393,0.40393 -0.60589,0.74053 -0.60589,1.00982 0,0.29621 0.0942,0.64628 0.28275,1.0502 0.26928,0.59243 0.60588,0.95596 1.00981,1.0906 0.43085,0.13465 3.4676,0.20197 5.11023,0.20197 1.40028,0 2.45049,-0.0808 3.15062,-0.24236 0.70014,-0.16157 1.37335,-0.48471 2.01963,-0.96942 1.05021,-0.75399 1.6965,-1.34642 1.93885,-1.77727 0.26929,-0.45779 0.40393,-1.22525 0.40393,-2.30238 0,-0.80785 -0.14811,-1.37335 -0.44432,-1.69649 -0.29621,-0.35007 -1.0906,-0.82132 -2.38317,-1.41374 -1.85806,-0.86171 -3.05637,-1.29257 -3.59494,-1.29257 -1.15792,0 -2.93519,-1.00981 -5.33182,-3.02944 -2.3697,-2.01963 -3.55455,-3.52762 -3.55455,-4.52397 0,-1.42721 0.72707,-3.05638 2.1812,-4.88751 1.45413,-1.85805 3.0833,-3.21794 4.88751,-4.07965 0.91556,-0.45778 2.65244,-0.68667 5.21064,-0.68667 1.13099,0 1.97924,0.0808 2.54473,0.24235 0.5655,0.16157 1.17139,0.51164 1.81767,1.05021 0.45779,0.377 0.86171,0.82132 1.21178,1.33296 0.35007,0.48471 0.5251,0.8617 0.5251,1.13099 0,0.64628 -0.10771,0.96942 -0.32314,0.96942 -0.21543,0 -0.49817,-0.13464 -0.84824,-0.40392 -0.35007,-0.26929 -0.71361,-0.55204 -1.0906,-0.84825 -0.377,-0.32314 -0.91557,-0.61935 -1.61571,-0.88864 -0.70013,-0.26928 -1.46759,-0.40392 -2.30237,-0.40392 -2.26199,0 -4.33547,0.82132 -6.22046,2.46395 -1.85806,1.64263 -2.78709,3.41991 -2.78709,5.33182 0,1.56185 2.77362,3.23141 8.32087,5.00868 4.3624,1.37335 6.5436,3.51415 6.5436,6.42242 0,0.59243 -0.10771,1.2791 -0.32314,2.06003 -0.61935,2.10041 -1.66956,3.55455 -3.15062,4.3624 -1.48106,0.80785 -6.06619,1.33296 -9.75538,1.57531 l -3.63533,0.24235 -1.0906,-2.26198 c -0.5655,-1.10407 -0.84825,-2.20813 -0.84825,-3.31219 0,-0.91557 0.21543,-1.6561 0.64628,-2.2216 0.43085,-0.56549 1.03674,-0.84824 1.81767,-0.84824 0.59243,0 0.88864,0.36353 0.88864,1.0906 z"
         style="font-style:normal;font-variant:normal;font-weight:normal;font-stretch:normal;font-size:medium;line-height:125%;font-family:Purisa;-inkscape-font-specification:Purisa;letter-spacing:0px;word-spacing:0px;fill:#000000;fill-opacity:1;stroke:none;stroke-width:1px;stroke-linecap:butt;stroke-linejoin:miter;stroke-opacity:1"
         id="path4167"
         inkscape:connector-curvature="0"
         sodipodi:nodetypes="scsccscccsccscsccssccssscsscscscscccssss" />
      <path
         d="m 418.50568,33.988243 q 0,0.68668 -0.32314,1.131 -0.28275,0.44431 -0.68667,0.44431 -0.76746,0 -0.96942,-1.17138 -0.0808,-0.92903 -1.33296,-2.34277 -0.5251,-0.5655 -0.84824,-0.80785 -0.32314,-0.24236 -1.53492,-0.52511 -1.17139,-0.28275 -3.11023,-0.28275 -1.57531,0 -2.42356,0.5655 -0.80785,0.5655 -2.01963,2.30238 -2.90827,4.12004 -2.90827,7.43224 0,1.69649 0.36354,2.86787 0.36353,1.13099 0.68667,1.53492 0.36354,0.36353 1.17139,1.17139 1.17138,1.13099 1.77727,1.45413 0.64628,0.28275 1.77728,0.28275 3.51415,0 7.67459,-4.76633 2.1812,-2.42356 3.15062,-2.42356 0.52511,0 0.52511,0.76746 0,0.72707 -1.93885,3.11023 -1.89845,2.38317 -3.2718,3.35259 -3.19101,2.30238 -5.69536,2.30238 -1.81766,0 -3.99886,-1.0906 -2.2216,-1.0906 -3.23141,-2.94866 -0.96942,-1.85806 -1.17139,-5.41261 -0.12117,-1.37335 -0.12117,-2.1812 0,-1.57531 1.0906,-3.59494 1.13099,-2.1812 3.2718,-4.20083 2.1812,-2.01963 3.75651,-2.46395 1.21178,-0.28275 2.62552,-0.28275 3.06983,0 5.37221,1.97924 2.34277,1.93884 2.34277,3.7969 z"
         style="font-style:normal;font-variant:normal;font-weight:normal;font-stretch:normal;font-size:medium;line-height:125%;font-family:Purisa;-inkscape-font-specification:Purisa;letter-spacing:0px;word-spacing:0px;fill:#000000;fill-opacity:1;stroke:none;stroke-width:1px;stroke-linecap:butt;stroke-linejoin:miter;stroke-opacity:1"
         id="path4169"
         inkscape:connector-curvature="0" />
      <path
         d="m 424.90224,46.752303 q 0,-3.2314 -0.80785,-13.00641 -0.76746,-9.8154 -0.76746,-13.53152 0,-2.14081 0.24235,-2.58513 0.48471,-0.84824 0.92903,-0.84824 0.72707,0 0.92903,1.41374 0.24236,1.41374 0.64628,7.14949 0.32314,4.60475 0.5655,7.71498 l 0.36353,4.76633 0.72707,-1.57531 q 0.80785,-1.81767 3.95847,-4.76633 3.15063,-2.94866 4.24123,-2.94866 1.00981,0 2.22159,1.131 1.21178,1.13099 1.57531,2.42355 0.32314,1.0906 0.32314,9.8154 0,6.30125 -0.12118,7.47263 -0.12117,1.131 -0.76746,1.131 -0.64628,0 -0.84824,-1.17139 -0.16157,-1.17139 -0.32314,-6.74556 -0.24236,-7.79578 -0.96942,-9.97698 l -0.64628,-2.01963 -2.34277,2.18121 q -1.85806,1.77727 -3.43338,4.03925 -1.53491,2.26199 -2.10041,3.99887 -0.36353,1.25217 -0.60589,3.99887 -0.24236,2.7467 -0.60589,4.52397 -0.32314,1.77727 -0.96942,1.77727 -0.28275,0 -0.68668,-0.32314 -0.72706,-0.60589 -0.72706,-4.03926 z"
         style="font-style:normal;font-variant:normal;font-weight:normal;font-stretch:normal;font-size:medium;line-height:125%;font-family:Purisa;-inkscape-font-specification:Purisa;letter-spacing:0px;word-spacing:0px;fill:#000000;fill-opacity:1;stroke:none;stroke-width:1px;stroke-linecap:butt;stroke-linejoin:miter;stroke-opacity:1"
         id="path4171"
         inkscape:connector-curvature="0" />
      <path
         d="m 463.80471,19.446913 q -0.32315,1.17138 -0.80786,1.89845 -0.48471,0.72707 -0.84824,0.92903 -0.36353,0.16157 -0.64628,0.16157 -0.64628,0 -1.05021,-0.68667 -0.36353,-0.72707 -0.36353,-1.6561 0,-0.76746 0.32314,-1.29256 0.36353,-0.52511 1.00981,-0.52511 0.72707,0 2.38317,1.17139 z m -6.05889,-0.20197 q -0.32314,1.17139 -0.80786,1.89846 -0.48471,0.72706 -0.84824,0.92903 -0.36353,0.16157 -0.64628,0.16157 -0.64628,0 -1.05021,-0.68668 -0.36353,-0.72706 -0.36353,-1.65609 0,-0.76746 0.32314,-1.29257 0.36353,-0.5251 1.00981,-0.5251 0.64628,0 2.38317,1.17138 z m -8.80559,12.84485 q 3.15062,-2.94866 5.29143,-3.87769 2.1812,-0.96942 5.49339,-0.96942 5.00869,0 6.26086,2.98905 0.76746,1.77728 0.76746,4.3624 0,4.28162 -1.89846,8.68441 -1.89845,4.3624 -4.68554,6.05889 -2.7063,1.6561 -5.69535,1.6561 -4.16044,0 -6.66478,-2.86788 -1.73688,-2.01963 -2.26199,-3.39298 -0.5251,-1.41374 -0.5251,-3.99886 0,-4.88751 3.91808,-8.64402 z m 6.50321,16.60136 q 3.39298,0 6.13967,-4.64515 2.78709,-4.68554 2.78709,-10.58286 0,-0.88864 -0.20196,-1.33296 -0.20196,-0.44432 -0.72707,-0.88863 -1.49452,-1.25217 -3.19101,-1.25217 -0.28275,0 -0.64628,0.0808 -0.32315,0.0404 -1.0906,0.16157 -0.76746,0.0808 -1.81767,0.20196 -1.41374,0.20197 -2.26199,0.64629 -0.80785,0.40392 -2.06002,1.57531 -2.38316,2.26198 -3.39298,4.20083 -1.00981,1.89845 -1.00981,4.16043 0,3.35259 2.06002,5.4934 2.10041,2.14081 5.41261,2.1812 z"
         style="font-style:normal;font-variant:normal;font-weight:normal;font-stretch:normal;font-size:medium;line-height:125%;font-family:Purisa;-inkscape-font-specification:Purisa;letter-spacing:0px;word-spacing:0px;fill:#000000;fill-opacity:1;stroke:none;stroke-width:1px;stroke-linecap:butt;stroke-linejoin:miter;stroke-opacity:1"
         id="path4173"
         inkscape:connector-curvature="0" />
      <path
         d="m 472.58568,31.281943 q 1.13099,-1.00982 1.13099,-1.73688 0,-0.72707 0.44432,-1.73688 0.48471,-1.05021 1.37335,-1.05021 0.56549,0 0.96942,0.64628 0.44432,0.60589 0.92903,0.60589 0.36353,0 2.98905,-0.60589 2.62552,-0.64628 4.60476,-0.64628 1.65609,0 3.67572,0.44432 4.20083,0.96942 4.20083,5.21064 0,3.23141 -2.50434,8.60362 -1.65609,3.55455 -4.03926,5.4934 -2.38316,1.89845 -5.08947,1.89845 -0.76745,0 -1.17138,-0.0808 l -1.85806,-0.28274 0.44432,2.1812 q 1.45413,6.86674 1.45413,8.60362 0,0.80785 -0.28275,1.05021 -0.28274,0.28275 -0.96942,0.28275 -0.72707,0 -1.05021,-0.36354 -0.28274,-0.32314 -0.60588,-1.41374 -1.57532,-5.65496 -2.54474,-16.8841 -0.44432,-5.53379 -0.76746,-6.74557 -0.28275,-1.25217 -1.17138,-1.25217 -1.29257,0 -1.29257,-0.76746 0,-0.44432 1.131,-1.45413 z m 6.01849,13.41034 q 0.60589,0 1.41374,0.5251 0.80786,0.48472 1.37335,0.48472 1.61571,0 3.71612,-2.06003 2.10042,-2.10041 3.55455,-5.04907 1.49453,-2.94866 1.49453,-5.25104 0,-1.25217 -0.5655,-2.26198 -0.5251,-1.00982 -0.92903,-1.131 -0.68667,-0.28274 -2.38316,-0.28274 -3.75651,0 -6.66478,0.92902 l -2.70631,0.88864 0.0808,2.58513 q 0.0808,2.58512 0.44432,6.58399 0.20196,2.38316 0.44432,3.19102 0.24235,0.80785 0.72706,0.84824 z"
         style="font-style:normal;font-variant:normal;font-weight:normal;font-stretch:normal;font-size:medium;line-height:125%;font-family:Purisa;-inkscape-font-specification:Purisa;letter-spacing:0px;word-spacing:0px;fill:#000000;fill-opacity:1;stroke:none;stroke-width:1px;stroke-linecap:butt;stroke-linejoin:miter;stroke-opacity:1"
         id="path4175"
         inkscape:connector-curvature="0" />
      <path
         d="m 504.46745,32.049403 q -0.48471,0 -2.06002,0.44432 -1.53492,0.40392 -2.46395,0.40392 -1.77728,0 -1.77728,-1.13099 0,-0.44432 0.64629,-0.80785 0.68667,-0.36354 2.62551,-0.92903 l 3.2718,-0.96942 0.0808,-3.51416 q 0.0808,-3.75651 0.5655,-8.28048 0.36353,-3.35259 0.64628,-4.24123 0.28275,-0.88863 1.25217,-1.85805 0.80785,-0.80786 1.29256,-1.05021 0.52511,-0.2423601 1.45413,-0.2423601 0.68668,0 2.90827,0.2019701 1.69649,0.16157 2.42356,0.48471 0.72706,0.28274 1.65609,1.21177 1.37335,1.37335 1.37335,2.50435 0,0.80785 -0.64628,1.69648 -0.60589,0.84825 -0.92903,0.84825 -0.48471,0 -0.48471,-1.37335 0,-1.29256 -0.72707,-1.97924 -0.68667,-0.72706 -2.7063,-1.37334 -1.33296,-0.40393 -2.06002,-0.40393 -1.73688,0 -2.70631,2.01963 -0.36353,0.80785 -0.68667,4.64515 -0.28275,3.7969 -0.28275,6.98792 0,2.30238 0.16157,2.90826 0.20196,0.5655 1.00982,0.5655 0.48471,0 2.01963,-0.28275 1.53491,-0.28275 2.54473,-0.28275 0.5655,0 0.92903,0.20197 0.36353,0.16157 0.36353,0.40392 0,0.68668 -3.47376,1.73688 l -3.47376,1.00982 -0.12118,6.42242 q 0,0.48471 -0.0404,1.33296 0,0.80785 0,1.13099 0,3.02945 0.28274,4.68554 0.28275,1.6561 0.5655,2.38317 0.28275,0.72706 0.28275,1.57531 0,1.21177 -1.13099,1.21177 -2.14081,0 -2.14081,-11.26953 0,-6.74556 -0.24236,-6.98792 -0.0404,-0.0404 -0.20196,-0.0404 z"
         style="font-style:normal;font-variant:normal;font-weight:normal;font-stretch:normal;font-size:medium;line-height:125%;font-family:Purisa;-inkscape-font-specification:Purisa;letter-spacing:0px;word-spacing:0px;fill:#000000;fill-opacity:1;stroke:none;stroke-width:1px;stroke-linecap:butt;stroke-linejoin:miter;stroke-opacity:1"
         id="path4177"
         inkscape:connector-curvature="0" />
      <path
         d="m 519.69621,36.007873 q 0,-7.55341 1.13099,-7.55341 0.20197,0 0.40393,0.0808 0.24235,0.0808 0.5655,0.60589 0.32314,0.48471 0.32314,1.37335 0,0.40393 -0.0808,1.37335 -0.0808,0.92903 -0.0808,2.10041 0,3.2718 0.36353,7.95734 0.36353,4.68555 0.76746,6.13968 0.40392,1.57531 1.37335,1.57531 0.92903,0 2.82748,-1.6561 2.34277,-2.06002 4.48358,-6.42242 2.1812,-4.3624 3.02944,-8.7248 0.80785,-4.28162 1.33296,-4.56436 0.40392,-0.28275 0.84824,-0.28275 0.96942,0 0.96942,1.13099 0,0.60589 -0.60588,4.76633 -0.5655,4.12004 -0.5655,5.93771 0,2.54473 1.00981,6.34164 1.05021,3.75651 1.05021,4.28161 0,0.40393 -0.32314,0.64628 -0.32314,0.24236 -0.5655,0.28275 -0.20196,0.0808 -0.32314,0.0808 -0.72706,0 -1.45413,-2.06002 -0.68667,-2.06003 -1.25217,-4.12005 -0.5251,-2.06002 -0.92903,-2.06002 -0.0808,0 -0.16157,0.0404 -0.0808,0.0404 -0.20196,0.16157 -0.0808,0.0808 -0.16157,0.20196 -0.0808,0.12118 -0.24236,0.32314 -0.12118,0.20197 -0.24235,0.36354 -0.0808,0.16157 -0.28275,0.48471 -0.20197,0.32314 -0.32314,0.5251 -1.77728,2.78709 -3.95848,4.64515 -2.14081,1.85806 -3.63533,1.85806 -1.69649,0 -2.54474,-0.76746 -0.84824,-0.72707 -1.37334,-2.66591 -0.48472,-1.93884 -0.88864,-6.13967 -0.28275,-2.66592 -0.28275,-6.26086 z"
         style="font-style:normal;font-variant:normal;font-weight:normal;font-stretch:normal;font-size:medium;line-height:125%;font-family:Purisa;-inkscape-font-specification:Purisa;letter-spacing:0px;word-spacing:0px;fill:#000000;fill-opacity:1;stroke:none;stroke-width:1px;stroke-linecap:butt;stroke-linejoin:miter;stroke-opacity:1"
         id="path4179"
         inkscape:connector-curvature="0" />
      <path
         d="m 546.17229,28.373673 q 0,-1.37335 0.80785,-1.37335 0.52511,0 0.76746,1.21178 0.24236,1.17139 0.88864,7.02831 0.72707,6.34164 0.84824,6.62439 0.16158,-0.16157 1.17139,-3.2718 0.92903,-2.90827 1.45413,-4.03926 0.5655,-1.17139 1.93885,-3.11023 2.94866,-4.07965 4.56436,-4.07965 1.05021,0 1.97924,1.41374 1.25217,1.85806 1.53492,3.67572 0.28275,1.81767 0.40392,8.60363 0.0808,4.3624 0.0808,5.17025 0,2.01963 -0.16157,2.94866 -0.12118,0.88864 -0.40393,1.0906 -0.24235,0.24236 -0.88863,0.28275 -0.36354,0 -0.48472,-0.32314 -0.12117,-0.28275 -0.12117,-1.37335 0,-0.60589 0.0808,-2.58513 0.0808,-2.01963 0.0808,-3.39298 0,-3.43337 -0.28275,-6.70517 -0.24236,-3.31219 -0.60589,-4.24122 -0.20196,-0.5251 -0.64628,-1.0906 -0.44432,-0.5655 -0.84825,-0.5655 -0.84824,0 -2.7063,2.90827 -1.85806,2.86788 -3.19102,6.05889 -1.25217,3.06984 -1.69648,4.60476 -0.44432,1.53492 -0.68668,4.07965 -0.44432,4.12004 -0.64628,4.12004 -0.32314,0 -0.92903,-0.68667 -0.44432,-0.44432 -0.60589,-1.89845 -0.16157,-1.49453 -0.44432,-5.85693 -0.28275,-4.40279 -0.76746,-8.88637 -0.48471,-4.64515 -0.48471,-6.34164 z"
         style="font-style:normal;font-variant:normal;font-weight:normal;font-stretch:normal;font-size:medium;line-height:125%;font-family:Purisa;-inkscape-font-specification:Purisa;letter-spacing:0px;word-spacing:0px;fill:#000000;fill-opacity:1;stroke:none;stroke-width:1px;stroke-linecap:butt;stroke-linejoin:miter;stroke-opacity:1"
         id="path4181"
         inkscape:connector-curvature="0" />
      <path
         sodipodi:nodetypes="sscccscscsccssscscccscscscccsccscsssssscsssscccscscss"
         d="m 22.77256,57.860273 c -0.36386,9.25842 563.86347,11.0578 565.97924,-1.73688 0.32071,-1.93943 -0.0808,-3.70266 -0.24236,-5.21065 -0.13464,-1.48106 -0.30967,-2.73323 -0.5251,-3.75651 -0.1885,-1.02328 -0.29621,-1.76381 -0.32314,-2.22159 -0.1885,-2.7467 -0.377,-4.12005 -0.5655,-4.12005 -0.10771,0 -0.30968,0.24236 -0.60589,0.72707 -0.67321,0.99635 -1.76381,2.11387 -3.2718,3.35258 -1.50799,1.23871 -2.76016,2.04656 -3.75651,2.42356 -1.13099,0.45778 -2.41009,0.68667 -3.83729,0.68667 -0.86171,0 -1.54839,-0.10771 -2.06003,-0.32314 -0.48471,-0.21543 -1.13099,-0.67321 -1.93884,-1.37334 -0.78093,-0.70014 -1.33296,-1.31949 -1.6561,-1.85806 -0.32314,-0.53857 -0.57896,-1.30603 -0.76746,-2.30238 -0.1885,-0.99635 -0.28275,-1.8446 -0.28275,-2.54474 0,-0.51164 0.0404,-0.88864 0.12118,-1.13099 0.1885,-0.72707 0.68668,-1.85806 1.49453,-3.39298 0.80785,-1.53491 1.54838,-2.73323 2.22159,-3.59494 0.5655,-0.75399 1.61571,-1.62917 3.15062,-2.62552 1.56185,-1.02328 2.9352,-1.72342 4.12005,-2.10041 1.23871,-0.40393 2.65245,-0.60589 4.24122,-0.60589 1.9927,0 3.6488,0.35007 4.96829,1.05021 1.31949,0.67321 1.97924,1.72341 1.97924,3.15062 0,0.80785 -0.20196,1.8042 -0.60589,2.98905 -0.377,1.18485 -0.5655,2.2216 -0.5655,3.11023 0,0.45779 0.30968,4.91444 0.92903,13.36995 l 0.60589,8.36127 -1.41374,1.13099 c -1.79102,14.10078 -566.38589,12.16675 -566.30238,0.92903 0.0106,-1.42717 -3.16409,-0.36353 -5.21064,-1.0906 -2.04656,-0.70014 -3.81037,-1.52146 -5.29143,-2.46395 -1.48107,-0.91557 -2.2216,-1.66956 -2.2216,-2.26198 0,-0.70014 0.36353,-1.56185 1.0906,-2.58513 0.754,-1.02328 1.38682,-1.53492 1.89846,-1.53492 0.59242,0 0.88863,0.20196 0.88863,0.60589 0,0.24235 -0.12118,0.60589 -0.36353,1.0906 -0.24235,0.48471 -0.36353,0.95596 -0.36353,1.41374 0,0.75399 0.49817,1.41374 1.49452,1.97924 0.99635,0.56549 1.8446,0.84824 2.54474,0.84824 0.40393,0 1.06367,0.26929 1.97923,0.80786 0.94249,0.53857 2.49144,0.10825 2.46395,0.80785 z m 548.65082,-18.33824 c 0,1.56185 0.40392,2.98905 1.21177,4.28161 0.80785,1.29257 1.81767,1.93885 3.02945,1.93885 1.64263,0 3.40644,-0.74053 5.29143,-2.22159 1.91191,-1.50799 3.4603,-3.37952 4.64515,-5.61458 0.64628,-1.26563 1.19831,-2.7063 1.65609,-4.322 0.48471,-1.64263 0.72707,-2.9352 0.72707,-3.87769 0,-0.53857 -0.0942,-0.86171 -0.28275,-0.96942 -0.59242,-0.32315 -1.57531,-0.48472 -2.94866,-0.48472 -1.23871,0 -2.30238,0.13464 -3.19101,0.40393 -2.34277,0.67321 -4.61822,2.24852 -6.82635,4.72593 -2.20813,2.47741 -3.31219,4.52397 -3.31219,6.13968 z"
         style="font-style:normal;font-variant:normal;font-weight:normal;font-stretch:normal;font-size:medium;line-height:125%;font-family:Purisa;-inkscape-font-specification:Purisa;letter-spacing:0px;word-spacing:0px;fill:#000000;fill-opacity:1;stroke:none;stroke-width:1px;stroke-linecap:butt;stroke-linejoin:miter;stroke-opacity:1"
         id="path4183"
         inkscape:connector-curvature="0" />
    </g>
  </g>
</svg>
